# xmcd
#
# Track frame offsets: 
#        150
#        20830
#        35607
#        54812
#        72265
#        93072
#        110785
#        130557
#        147445
#        162352
#        184482
#        200367
#
# Disc length: 2930 seconds
#
# Revision: 0
# Processed by: cddbd v1.5.2PL0 Copyright (c) Steve Scherf et al.
# Submitted via: ExactAudioCopy v1.3
#
DISCID=a90b700c
DTITLE=Darrell Nulisch - The Whole Truth
DYEAR=1998
DGENRE=Blues
TTITLE0=Leaving on the Morning Train
TTITLE1=Stop Thinking Take (Start Thinking Give)
TTITLE2=There It Is
TTITLE3=I'm A Lover
TTITLE4=At-Cha-Mama-Nims
TTITLE5=Telephone Blues
TTITLE6=One Night Lover
TTITLE7=Like Reed
TTITLE8=Love Me Like You Mean It
TTITLE9=There's A Sad Story Here
TTITLE10=Wait For Me
TTITLE11=Lyla Tov (Good Night)
EXTD=
EXTT0=
EXTT1=
EXTT2=
EXTT3=
EXTT4=
EXTT5=
EXTT6=
EXTT7=
EXTT8=
EXTT9=
EXTT10=
EXTT11=
PLAYORDER=
